<svg width="335" height="376" viewBox="0 0 335 376" fill="none" xmlns="http://www.w3.org/2000/svg">
<path d="M167.463 56.4C183.744 56.4 196.943 43.7744 196.943 28.2C196.943 12.6256 183.744 0 167.463 0C151.181 0 137.982 12.6256 137.982 28.2C137.982 43.7744 151.181 56.4 167.463 56.4Z" fill="#7DAED3"/>
<path d="M167.463 84.6C162.374 84.6 157.435 83.9795 152.722 82.8162V376H182.203V82.8162C177.49 83.9795 172.551 84.6 167.463 84.6Z" fill="#6EA5CF"/>
<path d="M79.0208 28.2H0.405823C0.405823 74.9224 59.367 141 118.328 141H123.242V101.48C96.8074 86.8523 79.0208 59.5145 79.0208 28.2Z" fill="#9CC4E4"/>
<path d="M255.904 28.2C255.904 59.5145 238.118 86.8523 211.684 101.48V141H216.597C275.558 141 334.519 74.9224 334.519 28.2H255.904V28.2Z" fill="#6593B8"/>
<path d="M59.367 178.6C43.0859 178.6 29.8864 191.226 29.8864 206.8C29.8864 222.374 43.0859 235 59.367 235H123.242V178.6H59.367Z" fill="#6593B8"/>
<path d="M275.558 178.6H211.684V235H275.558C291.839 235 305.039 222.374 305.039 206.8C305.039 191.226 291.839 178.6 275.558 178.6Z" fill="#7DAED3"/>
<path d="M236.251 263.2H211.684V319.6H236.251C252.532 319.6 265.731 306.974 265.731 291.4C265.731 275.826 252.532 263.2 236.251 263.2Z" fill="#98C5E8"/>
<path d="M98.6745 263.2C82.3934 263.2 69.1939 275.826 69.1939 291.4C69.1939 306.974 82.3934 319.6 98.6745 319.6H123.242V263.2H98.6745V263.2Z" fill="#7DAED3"/>
</svg>
