<svg width="15" height="15" viewBox="0 0 15 15" fill="none" xmlns="http://www.w3.org/2000/svg">
<g clip-path="url(#clip0_2_253)">
<path d="M14.588 12.5995L10.8698 8.88144C11.4049 7.9977 11.7188 6.96568 11.7188 5.85938C11.7188 2.62849 9.09026 0 5.85938 0C2.62849 0 0 2.62849 0 5.85938C0 9.09026 2.62849 11.7188 5.85938 11.7188C6.96568 11.7188 7.99758 11.405 8.88129 10.8699L12.5995 14.588C12.8742 14.8627 13.234 15 13.5938 15C13.9535 15 14.3134 14.8627 14.588 14.588C15.1373 14.0389 15.1373 13.1486 14.588 12.5995ZM1.875 5.85938C1.875 3.66234 3.66258 1.875 5.85938 1.875C8.05617 1.875 9.84375 3.66234 9.84375 5.85938C9.84375 8.05641 8.05617 9.84375 5.85938 9.84375C3.66258 9.84375 1.875 8.05641 1.875 5.85938Z" fill="#969696"/>
</g>
<defs>
<clipPath id="clip0_2_253">
<rect width="15" height="15" fill="white"/>
</clipPath>
</defs>
</svg>
