<svg width="200" height="200" viewBox="0 0 200 200" fill="none" xmlns="http://www.w3.org/2000/svg">
<path fill-rule="evenodd" clip-rule="evenodd" d="M95.0892 9.93417C98.0153 7.79969 101.985 7.79969 104.911 9.93417L124.598 24.295L148.966 24.2486C152.588 24.2417 155.8 26.5751 156.913 30.0218L164.399 53.2119L184.14 67.4976C187.074 69.621 188.301 73.3964 187.175 76.8389L179.601 100L187.175 123.161C188.301 126.604 187.074 130.379 184.14 132.502L164.399 146.788L156.913 169.978C155.8 173.425 152.588 175.758 148.967 175.751L124.598 175.705L104.911 190.066C101.985 192.2 98.0154 192.2 95.0892 190.066L75.4021 175.705L51.0339 175.751C47.4121 175.758 44.2005 173.425 43.0878 169.978L35.6017 146.788L15.8602 132.502C12.9259 130.379 11.6992 126.604 12.825 123.161L20.3993 100L12.825 76.839C11.6992 73.3965 12.9259 69.6209 15.8602 67.4976L35.6017 53.2119L43.0878 30.0219C44.2005 26.5751 47.4121 24.2417 51.034 24.2486L75.4021 24.295L95.0892 9.93417ZM100 26.9815L83.0225 39.366C81.592 40.4095 79.8663 40.9702 78.0956 40.9668L57.0811 40.9268L50.6252 60.9254C50.0812 62.6105 49.0147 64.0785 47.5802 65.1165L30.5555 77.4362L37.0875 97.4097C37.6378 99.0927 37.6378 100.907 37.0875 102.59L30.5556 122.564L47.5802 134.883C49.0147 135.921 50.0812 137.389 50.6252 139.075L57.0811 159.073L78.0957 159.033C79.8663 159.03 81.592 159.591 83.0225 160.634L100 173.019L116.978 160.634C118.408 159.591 120.134 159.03 121.905 159.033L142.919 159.073L149.375 139.074C149.919 137.389 150.986 135.921 152.42 134.883L169.445 122.564L162.913 102.59C162.363 100.907 162.363 99.0927 162.913 97.4098L169.445 77.4362L152.42 65.1165C150.986 64.0785 149.919 62.6105 149.375 60.9255L142.919 40.9268L121.905 40.9668C120.134 40.9702 118.408 40.4095 116.978 39.366L100 26.9815ZM139.226 73.2741C142.48 76.5285 142.48 81.8048 139.226 85.0592L97.5595 126.726C94.3051 129.98 89.0287 129.98 85.7744 126.726L64.941 105.893C61.6866 102.638 61.6866 97.3618 64.941 94.1074C68.1954 90.8531 73.4718 90.8531 76.7261 94.1074L91.6669 109.048L127.441 73.2741C130.695 70.0197 135.972 70.0197 139.226 73.2741Z" fill="#7DAED3"/>
</svg>
